<?xml version="1.0" standalone="no"?>
<!DOCTYPE svg PUBLIC "-//W3C//DTD SVG 20010904//EN"
 "http://www.w3.org/TR/2001/REC-SVG-20010904/DTD/svg10.dtd">
<svg version="1.0" xmlns="http://www.w3.org/2000/svg"
 width="183.000000pt" height="190.000000pt" viewBox="0 0 183.000000 190.000000"
 preserveAspectRatio="xMidYMid meet">

<g transform="translate(0.000000,190.000000) scale(0.100000,-0.100000)"
fill="#000000" stroke="none">
<path d="M1355 1745 c-112 -25 -320 -92 -480 -155 l-160 -63 -120 -1 c-104 -2
-129 -6 -190 -29 -122 -48 -260 -155 -240 -187 14 -23 80 -3 299 89 l217 92
33 -21 c57 -35 116 -147 116 -220 0 -16 -20 -78 -44 -137 -93 -227 -166 -467
-166 -545 0 -83 37 -29 136 198 112 258 291 469 451 530 40 15 46 16 59 2 40
-40 -73 -159 -311 -328 -80 -57 -144 -109 -142 -115 5 -12 31 -12 120 4 112
19 208 -6 261 -69 32 -39 33 -58 4 -64 -13 -3 -61 -13 -108 -22 -324 -63 -604
-257 -618 -429 -6 -68 12 -99 71 -126 84 -38 217 -20 362 50 206 98 332 252
358 436 l10 75 71 0 c49 0 79 -5 94 -16 19 -13 22 -13 22 -1 0 22 -55 40 -128
42 -54 1 -67 5 -76 21 -55 102 -111 140 -226 152 l-72 7 65 48 c93 67 210 179
247 235 38 57 39 110 2 128 -72 35 -233 -85 -375 -279 -27 -37 -52 -66 -54
-63 -2 2 7 30 20 62 38 91 42 120 19 140 -20 16 -19 18 32 128 155 328 153
323 204 340 185 61 379 90 476 72 30 -6 36 -11 36 -31 0 -26 23 -35 35 -14 16
24 -5 58 -43 68 -50 15 -194 12 -267 -4z m-345 -140 c0 -2 -33 -74 -74 -160
-69 -143 -96 -182 -96 -137 0 32 -47 119 -85 156 -20 21 -35 39 -33 41 3 3
194 79 248 98 19 7 40 8 40 2z m-386 -103 c6 -10 -365 -170 -414 -179 l-35 -6
20 23 c30 35 127 94 200 124 88 35 217 57 229 38z m165 -532 c-61 -132 -51
-62 12 85 12 28 13 29 17 7 2 -12 -11 -54 -29 -92z m439 -299 c5 -45 -31 -156
-69 -216 -91 -144 -288 -271 -459 -298 -135 -21 -220 17 -220 96 0 129 198
301 439 383 97 33 276 75 296 70 6 -1 11 -17 13 -35z"/>
</g>
</svg>
